<mxfile host="app.diagrams.net" agent="Mozilla/5.0 (Windows NT 10.0; Win64; x64) AppleWebKit/537.36 (KHTML, like Gecko) Chrome/133.0.0.0 Safari/537.36" version="26.0.14">
  <diagram name="Page-1" id="1yuSpl6NDxE8oBzOdSH6">
    <mxGraphModel dx="2029" dy="1752" grid="0" gridSize="10" guides="1" tooltips="1" connect="1" arrows="1" fold="1" page="0" pageScale="1" pageWidth="850" pageHeight="1100" math="0" shadow="0">
      <root>
        <mxCell id="0" />
        <mxCell id="1" parent="0" />
        <mxCell id="zxsfmSbJYRVgXf5iT4Ii-2" style="edgeStyle=none;curved=1;rounded=0;orthogonalLoop=1;jettySize=auto;html=1;fontSize=12;startSize=8;endSize=8;" edge="1" parent="1" source="zxsfmSbJYRVgXf5iT4Ii-1">
          <mxGeometry relative="1" as="geometry">
            <mxPoint x="-11" y="-736" as="targetPoint" />
          </mxGeometry>
        </mxCell>
        <mxCell id="zxsfmSbJYRVgXf5iT4Ii-3" style="edgeStyle=none;curved=1;rounded=0;orthogonalLoop=1;jettySize=auto;html=1;fontSize=12;startSize=8;endSize=8;" edge="1" parent="1" source="zxsfmSbJYRVgXf5iT4Ii-1">
          <mxGeometry relative="1" as="geometry">
            <mxPoint x="381.2" y="-879" as="targetPoint" />
          </mxGeometry>
        </mxCell>
        <mxCell id="zxsfmSbJYRVgXf5iT4Ii-1" value="Login Page" style="rounded=0;whiteSpace=wrap;html=1;" vertex="1" parent="1">
          <mxGeometry x="149.2" y="-909" width="120" height="60" as="geometry" />
        </mxCell>
        <mxCell id="zxsfmSbJYRVgXf5iT4Ii-5" style="edgeStyle=none;curved=1;rounded=0;orthogonalLoop=1;jettySize=auto;html=1;entryX=1;entryY=0.5;entryDx=0;entryDy=0;fontSize=12;startSize=8;endSize=8;" edge="1" parent="1" source="zxsfmSbJYRVgXf5iT4Ii-4" target="zxsfmSbJYRVgXf5iT4Ii-1">
          <mxGeometry relative="1" as="geometry" />
        </mxCell>
        <mxCell id="zxsfmSbJYRVgXf5iT4Ii-4" value="Create Account" style="rounded=0;whiteSpace=wrap;html=1;" vertex="1" parent="1">
          <mxGeometry x="384.2" y="-909" width="120" height="60" as="geometry" />
        </mxCell>
        <mxCell id="zxsfmSbJYRVgXf5iT4Ii-6" value="redirect to login after &lt;br&gt;creating account" style="text;html=1;align=center;verticalAlign=middle;resizable=0;points=[];autosize=1;strokeColor=none;fillColor=none;fontSize=12;" vertex="1" parent="1">
          <mxGeometry x="266.2" y="-935" width="127" height="41" as="geometry" />
        </mxCell>
        <mxCell id="zxsfmSbJYRVgXf5iT4Ii-7" value="&lt;b&gt;admin&lt;/b&gt;" style="text;html=1;align=center;verticalAlign=middle;resizable=0;points=[];autosize=1;strokeColor=none;fillColor=none;fontSize=16;rotation=-33;" vertex="1" parent="1">
          <mxGeometry x="35" y="-827" width="65" height="31" as="geometry" />
        </mxCell>
        <mxCell id="zxsfmSbJYRVgXf5iT4Ii-9" value="" style="shape=image;verticalLabelPosition=bottom;labelBackgroundColor=default;verticalAlign=top;aspect=fixed;imageAspect=0;image=data:image/png,iVBORw0KGgoAAAANSUhEUgAAAdYAAACpCAYAAACWGRz6AAAAAXNSR0IArs4c6QAAAARnQU1BAACxjwv8YQUAAAAJcEhZcwAADsMAAA7DAcdvqGQAADgiSURBVHhe7Z0FmCXF1YY7wSXY4g5Bs7BosA2uwYK7u7sGgrtbILjsjyYEd3d3J7h7cA/37/fMPTfn1vaVme27O7P53uepZ/qWdfmpU1Vd86tKTiaEEEKIUvh19a8QQgghSkCCVQghhCgRCVYhhBCiRCRYhRBCiBKRYBVCCCFKRIJVCCGEKBEJViGEEKJESvmOdcU/rZq9++672QgjjFi1EUIIIXonDz90b/WpM5QiWJdaapns7XfezkaUYBVCCNHLeeaZp6pPnaEUwfrVV19lRPOr/Nkji8+Q/k5xd/5C6jeNG4ZmfE7qN74ntXPS3ykxDkj9pnFDs/icsuODNCzPRXZO+jslxgGp3zRuaBafk/qN7+lJfBDjgDRcjBvS3yndia+RnyJSv/E9qV27xDggDZvGDc3iLzs+J/Ub35PaOenvlBgHpH7TuGFoxuekfuN7Ujsn/Z0S44DUbxo3NIvPKTs+8LAxXBqfP4811ljVp85QimD95Zdfsl/9yrMjhBBC9F46La9KObwkoSqEEEJ0UYpgLUHpFUIIIYYL9LmNEEIIUSISrEIIIUSJaI9VCCGEKBFprEIIIUSJ6PCSEEIIUSLSWIUQQogSkWAVQgghSkSCtWQ4yPW/cJjL8xmNY9dbJnaiOb2lvFRv/zt4Xad13qr/NnMTXZRypWGjKLD/9a9by+52klBmXJ3AG9q3336bjT766PY8vF716Hn65ptvzIw44ojZeOONZ3bOZ599ZvbcyTmkddKsDIdVfZcJ+fvxxx+tvGjjw6rd8M7vv/8+G3XUUe338NR+28kH+W1njHFa+W+3/FqNbWXXg8dFm/viiy/s929+85tslFFGMXv44YcfzG3CCSes9TEPNzyMcZ1Oc0fvCsbu0UcfzU477bRs3HHHzUYbbbS6gZDK22GHHbIpppii5QBJXA8++GD297//3eJxsP/yyy8t/D777JNNNNFELePqBKSDvFx77bVZv379spNOOimbf/75h0laOoXX8WWXXZb97W9/y1544YVshBFGyEYeeeRspJFGymaZZZZsnXXWyRZeeOHsD3/4Q7bJJptke+yxxxCVAe9kADjkkEOsQ3sb+umnn7Kpppoq23rrrc1PXyxnL89TTjklO+GEE0yg/eUvf8nWXHPNjuXH3xnjd7tDDz00O/vss22QPfzww7Nll122T5ZrhLwxPh133HHZ22+/PdhED/fPP//c7Mn/Rx99ZG2Ndj3mmGMO5hdhgxDcc889s0kmmST75JNPsr333tv8YuD999/Ptt1222yOOeZoq/yI97rrrsuuueaabIIJJqiF+c9//pNtuOGG2UwzzVRKPXg9P/7441a/Dz30kL2Dvsukjv60yiqrWPsjf//+97+zf/7zn/ZuD4s9/X/88cfPjj/+eOvnRWlz/2WkuxN4+jpGnvEhJm+4hQaeeuqpSj7AViaeeGJKeDCTD4zmryh8NPD73/++MI4BAwZUdtlll0reyM1fUfhOGjj99NPr0jTddNNV8tm/uRWF6WvGyQVnLY/5QFR55JFHKnlHrRx99NGVvLPVlQHuUBRfuwZ+/vnnyv7771/JO39d/PmAU/OThusLBh544IG6POUdvpILAHMrCtNTkw+gFueLL75YySei9uxucMstt9SlY+yxx67kAsfcYjx9zTj55MXyFPPoZu655661VcaQfDJYmXTSSQv9MgblgrSSC2Dznwufyk477VSZfvrpa34GDhxYee6558y9KE2pgbvuuqsy++yz170Lkws2cy8K110DuZJTi3vzzTev3HPPPZWnn366MmjQoMpss81W9+7ll1/ewnjY8847r859yimnrLWr9D35ZLjy0ksv1X5H995gOk0pgpXCLUq8Fzq8/vrrhcI1n6FVPvvsM/NTFAcG7rzzzsHCYhZYYAFzdxqlpZMGaKQxXbn2UXnllVfMrShMXzOwzz771PJ31VVXmV3kq6++quQz2JqffFZs9kXxdcc4uTZXixuTawQ19zRMXzBwwQUXWF4QqJ6v66+/3tyKwvTUwKOPPmrxP/zww/Y7uiF40nQ8+OCD5hbj6asGmATm2mYtf258ohHHq08//bTSr1+/On+EzbXRqo96/0wu8ZNr+VWb9sciJo7AOJgK/6uvvtrcisJ1x8Dtt99ei5e+XMQOO+xQ8/OnP/3J7Dw8Ew53w4wyyiiVV1991dzSd22xxRaV/v3718oouvcG02na31BoQiO1Gvv8HfY89dRT21JDyscff5z94x//qP4aHI/75JNPtj2AdC9v3nnntb+8B9MoLZ1mueWWqz51Meecc2a//e1vq7/6NpTpW2+9lR111FH2e4YZZshWXHFFe/Zyx7AUlg8Eti8DZdUFcQPL/MMbuQZkfz2PtG+2EMqEemC5Mx8o7be/KzLffPPZX3ebdtpprQ0PT+SaabbIIotUf/2Xp57q+qfXlBP5x1APbGVE8gE5u/vuu+0ZP+4f+J/UsMsuu9hfd28H319lK8CXk8vE07HbbrvZX9hoo43sr+fX83HiiSdmSy65pD2nLLTQQtWnLtj6oZ1EeNell16anXHGGbac/r9KKYK1XTjoQqWxNxGhMpvx7rvvZpdffnm2++67235AhP29YQ0djkHrzDPPzJZaailrtDQu8Abb17nttttsXxPY68SkUA7spf/1r3+t/S6TsuMb1tA22D+75ZZbbGK26qqrZjfffHM2zjjjlNZufFBl75t+VATvmmuuuWw/bZlllsnWWGMN2/Ojrw0v7dfz4QIlCr2LL764+lTPeuutV336L0wcIRWaV111VTbGGGNkiy++eNWm+3SyrNlX9QkE+EQg4u8/55xz7G+aHtroBRdcYGP4BhtsYO0F3B9l8txzz9XKuNmBrOGevFCGmFZLHk6u6VS22Wabyq677kpN1Jl8QDE/MZwvI7AEmAvjyjPPPFPJG29dOJYnIIaLphHt+nPa8ZOSvsNNEY3KsBVFYco2sPPOO9eVO3ueTkw75AK4rm6a4XXciBjvSSedVJcGloIbhS8qz1bvgjRcszDtxlvk3ireVnHipwjCebqcdJviySefrLo0jgdiXNE0ol1/0Ch/Re9sVRbQKK3RwAcffDDYGDLjjDMW7jsz3kR/GMYhlokhxp1PKCubbrrpYPaN0h79YCBXPAbb2y3acoE0fDMDV1xxRV28Sy+9tNlDLDtP76KLLlqZd9557dnjKAL/HiafuNWlf8455zR7J76nVZzRXydMp+noqWDH3fIGbMsJnKJLl0nR+K688kp79iQRDi2JU7b5QG4zSMKh+TqcOj3yyCPrZlc8+2zpkUcesdN2zz77rC0ls/SGZuDL0vjlPa+99pr5SZdifv75Zzu9zGyNE4MsBZEewnz33Xe2hPb0009bOjlZh33eMOxkJe8iHbwjpunee++1NL3++uvZNNNMYyfxfEk7liV/OfH8f//3f5YPPoWYbbbZLP2k6fbbb7eTyDHvnYB05JMhO1kZId1HH310bTnI04F/VhjyTmbLmuThjjvusDJxKK/f/e53diKcWe6//vUvO5npUO4zzzxz7cQ4cbIdQH4dyvfhhx+2041oDPmAZ1sOK6+8smmCEMuGOGg7rCbcd9999jxgwIBspZVWMrebbrop22mnncyvvxOoZzQVyps2QJ0tsMACln+vU9oAy+X+GQLhWQqjfbDEh1aKFojddtttZ3FwYp74cOddnlZOWrIS8/LLL2cvvvhirU3ijuHdtOXzzjvP8k97Y9mW/uGnXomPtrTFFlvYSd8IKwos45H2eeaZx7QZToASp6eDdJIO/nq6vDzeeecd01YeeOABKxvqkTIkLvD343bjjTdamjws9UofxnB69qKLLrK6Z5k/H8xrS7X+TiAsZUu9PfHEE5YmlnVXX311K6M333zTTs/GMEV4Gjj1ysnWyK233mraJnFgKBuWTo899tiqj/9CnnLBVMsnqwz8vvPOO+1EvKfD38dpZL5moJypa/K41lpr2XgR/bIKNP3002fvvfee2QErRYyZp59+epYLetOKF1xwQStvaDX2Au70Dw/Db95LvZ111lm1rYeYFsZCTv1TxryDcY8xh1UM3LEjLwMHDrQwr7zyiuU9pp1xga8HKEvGAvpzfAf9Lxf42V133WV5pz+vvfbatS0f99sJeH9HyRM/xLSaYThorHnnt2dmRLw+mryTmFsMd+GFF5obs8S8A7WlsQIHAXJhWPOXD7aVvOPYc17RlT//+c/mz8k7S93BDTf5oFZZbbXVLI8cUJhrrrlqbpNNNpmled11160LgyGveWOxuD1NzJbzTmXuuZCx09KcrOM3BwWYsQLvglxg1E7a5hMB85MPyLV35IO2+YOY/7INeD2khrLkwEM+2Jo/8PQ7nHKdfPLJBwt7zDHHmDsHeGK+3Bx11FHm7mlINVYOR+QDVJ2dmwMPPNDCENbTkw/KpnHgTrlTnvkAXwuTDzTmD/yd+QBcO3SXd/xKPoDX/OdC3A4EAafC07bJKeZcaNip0WjPgT1OleYTlTp7N35AJp+cDHbSGsPJTvKe2hNvPoGxsHDCCScM5of6ir9pk/FQmpt8glD5+uuvLR4vC9h3331rceQDciUfCGthllhiicqHH35Y9dl1YpYT++7uhjhSDcoNfcKJdeB9k5OzK6ywQmXCCSeshaENAP5bGciFXC2smy233NLc3E8uRKw+F1tsscHKjP4O7neDDTaw/hy1Xod2mE8ELBzpXmqppew5nzDaiVzw9kn/jxofed5ss80qo402Ws3ODas1fnqc8J6/IgOc/M0na4PFg1lxxRVtrHE8jEP8sd27Ia1OLkTNzuspHUvpa+Bx54qFtVfc0GzXX399e6as88mM+YGYjzJNpxnqgpXPNcAbd6wAPpkBwnhjQ5Ats8wy9synAq0EK9Ch+dzF/Zx44olmD7GBrLHGGlXbLmjo7uYmdnSHRj3OOOPUDSIsccdw+eysJljh448/rglRjA+AdA4vAwS/wwlbb3i5JlD7dIdy2XbbbQfz7/nvhAHST549/amhXrbffntbDnK8XQDLw0xEYhgEi5NrN/b5THR3wetxRMHqZYYwvP/++23wTYUQ/h0GLe/8LP3xPodJFvYIzkh8HxNBJwrzfHZdi4vTtrE9U15xAhndck3NwuTaZM3O/cSTp5y6ZJnR3f2TI5bpOD1M+3c3DCc1/VMP4qFsGPSjHz6bYDmYiQafRcDxxx9f5yfXMmuC1WGp093j6ddck6zZU8b0v4hPaN0wDvCXiW+ujdW5Yfj0x8m1ppq9C1AgbQgE7L2PxjbbyAB9KZYphgmXjznAZA97BFKcTGOYJHq50cc5PczkG/wdEMeErbbaqmpbMQGLHQI3LsungtUNdcOJ5lx7tN/ejuIYk+YzGodJQgyfGoTfY489VvX93ziddAuPyYHDVx8HHXRQnTv1jMCmX7z22mtVn/XthTw4Rx55ZM3+zDPPNLuYjzJNpylFsBYlPBqHgvbZHo04Cj8MgiR2ZioFe5/Z8V1UM8Hq0EDcHf/eCeC2226rC8/sP4Kwje58n+bH4YG4aJjxUxI444wz6sLRYOLgjcbsbnTMCILT3dB84NRTT63ZrbnmmmYXYWBFwDuxvDthgP0eT1OjzsnAf/DBB5t/iOHTVYooWGGllVaqc28mWDEIUv+eEK677ro695FGGqmmSfOdntsvuOCCZhchbUx8HP80xQ3ao7PRRhuZnZeBf5bCgJ22T/yQLp8MuXHhwUAW7fEfBSukE44o5CG2dwwCJzLeeOPVuSNQU5joRT8IVl9BgbR933rrrVWX+kkgBsEBXm877rhjXVjMJZdcYm7AJ3PRjQHcYbLm9gcccEDVtgv6JXnzCbK3tVYG0FDjOzH+mRPQRtCOgW9cU79ef9Q9v2+66Sb77fHzmUyRf/BPmzALL7xw1bZLsKaTT74Pj6QrFV4maR5TA0ziG90nEA1jtNd9DO+TDTexvwCT2+ie7rEC/TH2kb322qvqUrEJodvz2ZH37ZiPskynKeXYVh5P9al9cpU/22yzzaq/uuDTGz9pBr5/5+v47eD7bQ77uvF0Y95wa/tgwA0k7Ps4eUeuPnXB/g97aw57M8S1/vrrV226yCur+jQ4nMbz04TAXkOE/QeHvUlg/9Vhb4myiOy77762R9IO+WDd1LQD+eMTG/YJ2WMuqnPioiy5PWjjjTeu2bWiJ+0H2E/NB3R7Jg72yPxWLt7LPq6f+GRf0Mknatlhhx1W/dUFN8r4HiGwp++w9xjLmn1u4J3sM9FGoagNEC83GHG7EucB2NvMNeRsiSWWMPd8gml/G1FUNptvvrn9dbdcW7K/DnXkpz6JP40jnxzaX+zdrVn7pRzzyVL1VxeeZ6A/xTMTnB/INbFa3afv5+R8vF0q7d/cZuSwd+ccccQRdeMDe63UE/vw3YVzCincmgact6CN+H778ssvb/uhEfbjIRc2tu/JPij58TxzK5HDfnmuRFR/1X82xv4ie8ROWla0F3D7fBJlfx0+a4FW/Yzw+YTebq9jL7MZF154oe3j84lWjLdZGwHaSQT/HsbTf+6559reqjPrrLNWnzLbi/evPrjhinbcVylFsLaq1EZsuummWT4zqf7qItdK7C+HOvi+lYMe3YnfD0A5/k2lw/dpUbByKIIDAkDlc2DDv+lzvPECB2ho3AjoSNohIhzyiAMoHZEDPR9++KE1IG9MwGEVGmMUtsCgzIDOZj/Q2Tm8wnubvZuy41DP888/b3FHgx35b6d88UO6EBJMNpiAMDmKxHSQNv/utV2a5aOIKDRInx9OA7fnoAkwGYhw/SWDFhMl8sXhk1yLMjcO1XibAD5/4TMih+vquP6Ozwo41BGFewoHOgA3DtlxAIWw7ea1HX9RyAHlkmvC1V/t0ew9TFY5gOPthPKgrB3awfjjj1/91QWHkhqRfiKHgIzEiW78NI/DewjExRZbzA7DAYfZELjtlqeDIGRiFvHJL5Mg8udCjANufI4UcQHPpJdPT5hgOQhKDuQ5CGUmM/RDDulwCChCP2xEKqzSb5w/+OADm8S0A+2cQ5sceEPwxz6RjgEoA3yiVRYev9ebQ90zBlI23C8er6ttN1+9kWGmsRKGzsjM1aHwOSlJgbqA9Nl5u6SVEYUo8Dvt2AiZCMI8Qofj1OSrr75qg4xrta3y7e5x1g3kjQnFxBNPbIMUJwYdBB3aVZxRe6Pk5CknUdGsOIGYzqIbwSnQ/v37m6YcDXac+msF+SANDKB0ToQMEyDKjclRI3w1IO20ncDLOg7EwMADTAiiNgsMfrQ/Bk5OdvoATxtkEHcYZD0s+WcihNbJ7BtB3qwdxAHX/TXz3w5peE4Np2XMxHRI8fe4kPbf5Clte3FABE6VNqJV/mNe4uDu9gzOCFcmQ5xcJS3dKVP8UqfxIgTipt+hiTIp4L30TY83vSyCb4IPOuggEwh+WYrDxAx7B2HKyhnjHZPq9PtY+nW7pBNE2iOTnmaQB/Ln/RfQxlkVY3Up5jOW/Q033GBKgdt1p4yLYJIQV+KA09G8n7JBcUDhcJpNOHo7w1Rjhfj5hFccyzsHHnig3WLCoNGdCmX2E0lnw/xONa30Y2mOpccBmtkmn7wMGjTIllNYcmwnTV4usbEAAzkDAp8OYOhYbtBoWCpiecu10/gu4uTTm0UXXTQ79dRT2yr7qBGnpBOPIigvPrfhvTyTHgyfBnBcnyP26bI+sJSUTlo6TboC4rDCwAoI5ZXWHQKWQRpNEkh3hIHx66+/tmcPH00zUvdW/nsC9ZvWsS/3ttM+oMif26X9A/vUf9rP+NRmSKGs6GvHHHNM7XeEyRBL9Czhpn26Hbbccsvq03/jZiLPSlI6uWaFKPYVypdxinGCSzUiTMriChVlw+QZQUF/Rxukn9PfUQSi0G5VX0xgUj8uLBtB2bC8y2pb7L98/sbkgMknqyk+1sb4+UzMaZW2VpBO+lKECepLL71k5UJZxHKJK4V9jVIE65CA1pReM4aGyGDNt2ndhRlhJO2MVG5qFzsMbsTh33w5fEfGwIuA6S6p8GLg5jvL2Wef3Qz7DG5YnnSNmjTw7Vtcmo5pR3OOS3SNiEtrKemyVCMYGKJmDaQFw+DCrVNFV1OWoTl1h7Ru45IlWisdt9GVbexbM8j4d6MOe34Mtr0V2nQ6uPo3w2l5NKKZv6h1NyJ9fyz3nuJpos+xbzvDDDPYb4htHmHYk5UR+pt/7+zQn/hGlu+CY5mwNePL+uBu7BdD9Ev/jWlByLIlxSoR/Z2JNf2c96Ol+VYCNKsHJ/XD3mQrWIVhBSlCPBjqiq0mloiZgMb4o+Y9pFAmabtgtYF6pVwoi1guLNW3Ux69kWG2FAwezpdWY2Nkr5MG2F3SjhKX9IDf6b5FukcF7KM5pAuthtliXLpul3Q/lqUiXx6mDNw4vI/ZLYco5phjDluOYVYeD3ngh8GMWXsrENB8qM1FAdEwWdhvv/2qvpqDFu17kLGewNPO8rVrAe6nu4PGkJJqm96G2BfGMJGjzDgYEQdKTy8XBRS1By6UgDQPhEvLY2hDm04nT1EIpXh62017ekgObS1qZJBO0OJhpp6CdoVAYGKDxohmQ7ulj8d6YDJ0//33V3+1B+ERgGytpERNFvxdLFumpIcYga0Sn9g49GEgrmi6S6rxIaho061AWWDcYWKZ1rmnBcGfnotIl56HBMo7HtwCtrQglkk6SeuLDFWNlQpNC42CZOBnWZFnxzXDaNcOK6ywQvWpCzbEI/yOjZOZ5GKLLVb91QXvpLH6yU1PAzf6oJ0VpalogHJ/zH4jCHaWliMe3u3RjuMyOTc/cWMTpxDB404FSQrlzQyQwYIlp2i4lYdlrKL8pDCzZDafpttJ88pv9k3orE5aRunvdDmzqEwjRe7pHo6vPLCs5EtupA3tlU7N4RPe6+lHw2a2nE6GOOxBWcYlR39/O+VXJun+ZrrHxgEVyr1VuhDGcYm7EUxA4hI75w1SQYodeDzt7N23AweD2PJwqEO2UVLtK91uaRfuRY4gFNM9U6AsmThGgUk5o92mUPbcrBVhKRZiOfPMhI2Tuo1I6yXebAS8nzGsVV17u/WbpBr5Tw9uukY+pPhJ4DR+JhxsF8V8klbOmrAVlua/rzBUBSsDU9HSIAUZZ4k0ykYV6ntHTqqREi6enOPKswif9PhgAltttVXtGriUdCk63XeJpA2A326H4GapA9yOPQ2WXtwf+eJ9zIApJzowWpV/JoIdacT9j3/8o9kBGm0ziJtwzUw7uD8OPZAmz0dKPI2K33iwJJ3Fv/HGG/aXuNgbZzYd8X26Ru9CMLjmhB/2AtmrcdBsEKDAzJ6JCYIXv5QnMLDGg2IcMoGdd97Z/jqsHnj9E97TxBVsPsgXlWejtDvp3iT+o/Auwg91eNxMDiJxQgZpmny1hHT7ykz6zphHtJ34n1HSfsxE1T8Z4V1cz8n2jr83LYM0z0Xvdmgz7OM7Xm977bVX7VMUiM/tQvqYRMVPYdhrbySoKIcoiOnXTDiiX39ed9117a/nhbbNVgN42XKIkZU5NPFG+Oqax+v/Xcfhc67ucP7559uJZso8lrPHz+FMhy0TBKG7tWqXsRyAlQSf8PD5DkI0PexI/hiDGce9XOhrjJeN/jlCnyAvjCEmH9wKP8LF3uGD+1wzsCurnn322aptV1jgHwzzUTpJ4tJ9SOOI/6TXTT541n3IDvkMqO4jZK7PcrhizO3zyrN3QEy32+WVXvugOm9gZgdFfnffffdavBhu5OHDeScf1GtueeOxv7nQsSse+YDeb1zxD+/91hYuguB6xggfXuM2YMCAqk1nPqJ2A+Sfd2K44ILLO1L4Z83uJ3747nFw4YO7Y0YdddTKYYcdZjfLUF7YedlguJyDOPNJh4VPL4jA8FG5w8f00Y025+y///5mR5nls+GqbRd+cUX85/SQXlyAwS/pOOKII+zCEy5G8NumuMCE9h39x0swYj/xdn1Z8lE9JuYJf7Tx1A+31HDFJ7eKRXtuCconHBbWyz0Nz405XMPHs98Axk030U8+Eam7RQuoU3ePNwlxs47bjzzyyFYOkVxY1dwx6cUBfuGGG679dPydXFrg+QLqaZLq9ZTxQoruGvC2gaG9QSO/+WS35veGG24wuyJ/4P00GtoUF2B4vvzifii6IILrQh1utIqXfeTae9Wled5hv/32q4v3ggsuMPvIp59+Wrt6lPd4P2kUR79+/eouwUkvGcFwuxZ9jr7ifSv+Qw/v71w2QV79isz+/fvX/Kf5KcN0mo4KVuAGEoSDF6QbBs1zzz3X/Lhf/y8c71dvnnF7Gn7RVV9uqByuTcs1KfMPDE5cd4c7AowBjls+PAy31eSzKfMb0xwN+D2q3DwDqTtwM5LHGw0DWK5dVH1VKvfdd1/dtYbR0Ej5Z+4OnQZ7hA9/uc6Mhu3XqyGIfACLaeqEgVlnndVuQ4m3RCFsufc113wquRZds+fez7RTABONODhHs/3229fuUcUgsCgrJj9er363LnU9aNAgu5ZunHHGMUHHQO9hqXcX/C7A/NrC0ar3rq6yyip2a423TeJxQexhuAVspeQ2qGi4js+v7zv77LMHE6puGCSoe4jlwV3IRf4xflNPkWCl7Xq7iIYrGf2azfge0pb6xXADEMR+EQ3ClSsRHQZRv1YPQ50x2fXBftppp62bzHzxxRd2A5n7j4ZbwxjI05vO3Ljwje2N9DBG0OZ4F3a0Dybl4HnujoEnnnjC4qKc3S715/bUB8KHvoCgL/KHAQQl7czTn5r0n43jP9fQ7apD6saFDHlmAuVCj3ZGGThF748GvI4HDhxYU2C4fxwhzyQxXleJ8H/jjTcsHBDHxhtvXHOPhnEoKkq5Bl7oJ8YH6fWH0XDntCsljWTLkJpO09H/boMd+yF8psFJS19KwD/Lduz9sSdHEvDL8hJH0VmC8DgxfLfGsgKnE4ve40uC7BeyNENY3sXyKsseHPzh8BHLgexJcGDB91WbZZ938e0qh6tYlkiXfTwtnFjkXekSF3b8Jwr2ZT1N5JtDQBySYX+UfUiWzbg9h/0d98dNSzxzCQHfk3HRActtpIHyYamJ72C9nDoJ8bO3xeENltqpI/aGuJ2G/T3KhFOTLMHzeQTLa5CWLfFQT+zTXn/99bZMxMEYvhnkA3z/rIKP98kbl3nEE7qcSmap129N4qQuy4TERZmxjEsbYI+MgxJeNhhOLbM/tfXWW9tNWpw8Z8mJb+ioo3zgsDzE8vS/1BX7PWwr0NY4GMTlAb7MDByyYYmVA26eb8ITH/tLHDxjiyO6ceCG8qNdR3uWVmmnnDsgPPv98bMl0s63zJQXnybQJqgX6ohyiOXueeDAFu2OMuNwFt9SsmSLX/aa2SKhzBxPB3XqpzM9Lm4LojzYysBPLpDsbAP9yvPv4el/6Slr3GkHpJnleZb8076DHcvsLGuzXEp+6Wd8/sE4kQ/WVv7kgyXanvYDD8NePGcqWO6P5ZeCf5Z0eR/tsJVf4LIRblRjLKF8GPc4BOnL17G8GGvIs/ch6prvpdl+YRyhHZFW37Jo9n6HuDljQHvnMg3GEfov9U6bzifBdkiJb7Lzia99ygeeLuqKcmcLLe7v40Y90V/pO0Bbp08SN+4sJafbbdgDYzLbGL59RLuk7/qp/Xby1lM8DZ2iFMHaKArs6ejNKBrIYnztxBGJYVsVXqN0R2Icjfx35z3N/Lo//raT554OJj2hu+/paVkV4XHFsOS9WRml72/nvUVpbhWOMJie1Fc7aSJMKliZmPgeXkp38uB+28mjU6bfsijKc3eI6WwnLvffHb+NSOOIcTcL2908t0pHSqN0NcL9N/JXlN4y89ddulse3aV9idUDSDwF1MzEDLpdpJ04ookUuUfTDu34j36KTKTI3Y3Tbp473TgiRe9vZhpR5LeVcaJdqzJKKfKTmiKK/EUDPa2vIj/RNMLdUv9un1LkD+MUuUUTKXKPJlLk3gkzpHQ3rp74bWRSon30l5ruUhRHM5NS5Ccap8gNU0SRPzd9nY4KViHEkIEmnApkthiEEL0XCVYheiE+a+czpPQTNf9vS0NzxUII0T6lCNbhQXUXojeBpsqBOQ4OpdfKcdkAh/44zCXhKkTvo6OngoUQPYP+xD3RnJzk1GuELssJTU4N8+G9JrZCdI9OyysJViF6IXTL3nYyXIjhBQlWIYQQokQ6La90eEkIIYQoEQlWIYQQokQkWIUQQogSKUWwan9VCCGE6EIaqxBCCFEipQjWEg4WCyGEEMMF0liFEEKIEpFgFUIIIUpEglUIIYQokVIEq04FCyGEEF3o8JIQQghRItJYhRBCiBKRxiqEEEKUiDRWIYQQokRKEaxCCCGE6EJLwUIIIUSJSGMVQgghSkSCVQghhCiRX1VKWMdtFkVfPtgU86UDWt1H5dc3GF7rqYShTQyndLqdlyJYf/nll4YJ/emnn8y9r0F+Rh555OqvLPv555+z//znP9VfohUqv77B8FpPab6EiDSSV2XRUcGK3csvv5x9//332YgjjthnZpCkk7T379+/9vzBBx9k77//fjbKKKNoJtwCyufXv/519rvf/a5WfpQdZajBrvcwPNYTeWBiQPpnnHFG9VVRCO2kk3R0KZjEv/DCC9k444yTTTLJJE01V/x654Y0Tnf3Z2iW9J7Gx0DzxRdfZG+88UY222yz1eJgsPn3v/+dzTzzzGYXw7qf1M5Jf6fEOCD1m8YNzeJzyo4P0rA8RzvK7/PPP8/eeuutbMCAATX39957L/v666+zGWaYoa4dxDjA43Fi3I38FJH6je/pSXwQ44A0XIwb0t8p3YmvkZ8iUr/xPW7XrJ6+/PLLbKaZZupoPZUdn0O+Pvzww+zTTz+tTRiESPE21SmGyuc2ngn+NjLu7jRy92dI3elUGP/dyG9092eIzylFHT/G43/T56LfGE8nxt0dt0/d/RmiOybG58ZJ7fiL/0j008xEv/7sf/25Fe43hnWiW3T3Z4jujYwTf8e/RX5aGffrNHJv9Ds17u40cvdniO6NjBN/x7/RTxGp3/jbiW7R3Z8huqfG3Z20/UJ8hujeyLg/IYYlpQjWZg25VSOPHcJxu1ZhI3TMV199Nfvss8+6Fa6Ionc3Sw9C191/+OGHut9F4I6mUNZeFvvYzz33XMMl+ZgeyonlPjTyVLiWSaO8N8LTFymyK5Nm7+zke4cW7eSju/kss2xiu2S7iP7QTvzt+BFiWNLxz23oPI2gc+y9997ZaaedVuso/EU4rbnmmtk999xT60Ru3I8/gz+ffPLJ2a233mrP7if1V2RfRFG6G+UFAfXJJ59km2yySbbCCitkiy66aHbGGWeYW/ounhlEttlmG1uKK3KPxknt4m8mEzvuuGP2zTffDOYGpO/pp5+2ZXm4+OKLs1NPPdWeU78Q7dqxH1KI65BDDsmuvfbaWtxMFnbaaSebBLidG6cdu/Q38Ez8W265Zfb3v/+9zu9HH32ULbXUUjZJ83BunHbsnWgX3dLfEO1S47Syi4a+wPI7z2VAPCeddJK1nzROf2cz+9SNdvnmm29ma621VrbMMstkCy+8cLbXXnsVCtgYxx133GHbNdFdiN7EUFkKbgYD2SmnnGLC1DvKzTffnF199dU2KDivvfZa9s4775ifb7/9ttaxMAgq9oUQ0ssuu2w1RJa98sor2ccff1zzB2iKr7/+uj273ZDgcRx88MHZxBNPnN14443Z+eefnw0aNCh7/vnnLV+kD3+cuIwDAgMIA3gqYEnf22+/bc9uTz7Ij2ullA3xUi5jjDGGvXPMMcfMvvrqK/ODvecdEPSkiTRsuumm2e677272gPbK+/xdxP3jjz+a3bvvvluzd78YcLsyoF6YnDjkgfySDmDy8NJLL9lvTw9ly+E4L1PyRtrxS3zYebjYvoA2+69//Ss755xz7Le7ITTuu+8+8w9MVniHr4QgkLGjvWHPO7HHYMe7+Ot2QH3Szkk7YaN9nDgQ7rvvvrN8Ey+QxrR94M4+ov8mHG3BywKo+7/85S/ZI4880nAloyewB0teIsTNO2jLnEXwd/GXciMPtHXS5mMFbpQHbZE9Xvr7P//5T/N70EEHmR/y7UKWcqFtE8f++++fPfjgg7WyF6K30XGNFZoJ3t/85jfZaKONll111VVVmyy7/PLL7UTuCCOMYL+33nrrbLvttss23HDD7JhjjrHOus4669Q0tD//+c+m7aD5ouXyvo022ijbY489stVXX93ig6OOOso0ReJDw2tEUXqb5QEYiBH4pHnqqafObrvtNjs8ccABB2Q33HCD+UFj3H777e3EIrN1hNvOO++cLb/88jaYA2nGboMNNsgOO+wws0Mgrrzyytkuu+ySrbbaajagHH/88dkf//hHG5geffTRbLfddrPBjb+bbbaZ/WWSQbm8+OKL2cMPP2xlg+C/4oorrKyAckBz23jjjW0gBoTwqquuauVK2s477zyzZ8DbYYcdzP+uu+5qdo1oVV4plFu6NM1J8lFHHTV77LHHsvXWW8/Ss+KKK9rAzgC+7rrrmoazxhpr2EDL4Lvkkkta2zjrrLOye++91/zsu+++Fs4nCc5YY41lgzVhgUGcSR2H1oDldcLxXsodfxxgW2WVVaw9brvtttnaa69tfu+//37zu88++5j7M888Y/Zo3dQlf6lDyh4od9oCbdqFO22Wtok9z9QH4VgFYaKAUN9qq62sHVAeF110keWH+vbJEpofwv2yyy4zIUQ9I/AaMaT1xPtp9/Qz8kRdnHvuuWZ/++23W9ppK1tssYWlkTx4HVCeCFfKl7qYaKKJrI+ikRInZeyTOAQv/YH2TP3TRqkfIXojpQjWOFil4NbMnZk2A4MLVoQEA9ziiy9uAytLdcxcr7/+ehNQ1113nWkldESfjTOIMaDQGRmIWRJGi2MGzMBy7LHHmrZLXHvuuacJFwZB3l1EUZob5cMHJgZvOvzvf/97E0oM6oAQJI2AX34zMDE5wB8DBsKUpVAGecqBZwaXBRdc0NKNEGUQxe8iiyxiy7r4ZckZfwgCBnxA62NSQt7PPvtsG4w44clgz/I6gtI1KsqB+G+66SZ7ZqBDACOgpppqKhPoaMIXXnihCTKEAhMF/CPUqadGFJVVK2IYf+YveZ999tltgnTooYfa4H7EEUdk8847r+UTYYS9a0Xkm0kA6adsqHcGbNcCHSY4CD2EMNDGyDcaFBMlPq3661//mv3jH/+wukKbHWmkkayMaVO33HKLxcmS6/jjj28CBb8saV5zzTU2uXr22WdtQkMZelugDaNRIiTOPPPM7PTTT7d0U4dMBGjnlPe0005rfskD7Yn3EwftgDbOsix5pt0xmaDtLLfcctkll1xiQn+66abLDj/88Gz66advKEB7Uk8plAXvID/knz6HJs4keL/99rP00p8ptyiU0bznnHNOe/b0MSllss1EAtyefNK/KZ9ZZpnF+oif2heit9FxjbVVw2cGizACZtp0TAZtBCNuLG8tvfTS5u7fptHpmCEzoDFoTTnllNl4441n/vHDEibaIQL7yCOPtLhGH310E6osIyFgGDgRwo0oSnejvDBYTj755CYA0BTQFNEs0BR5hw8m/MUwSJAehCTMP//8lm4M2iqGgZKBnUkFgz155D1ojAxGDLCzzjqrhSddxMtfloMXW2wxs0dAsBrggtTTzzMCAgHtfpnEkA7scEM4g38m1a9fP9Oe0ITR0siDryiUAe+Ig7w/8x7ei3aC9nP33XfbwIvgQctH06bMxx13XBNWDPBoPkA4luMJx8Rh0kknNXuHiRUTMuLi84wrr7zSBm7e6WV04oknmvBFgFMfaFjUxwQTTGBxECcTPcoC4Y4GitaLX5bjF1hgAfNHfPPNN5/VARokggcNjokKZYvQQTgjWIC//sy7qG/2IzHs5TOxwD9CdcIJJzQhCuQfAeQ0arNlQj69HZEW2iX9kjIYOHCg2dOH02/Z+QyPOgO3J+3klTrGztsBYWP7oL0I0VspRbAOaedl8GewRutDkCL40MgYrBgkn3rqqarPrj0etNUllljC9qgYVBk4gXQwKNIp0ebQRFjGZHbPIImGw/IUs3mWp5gxx87aEwhPJz/66KNt2WqaaaaxARMhhXDHnYEXGEQYzMkXA4gv0TFRQEtkQEEzQhNigEcTYwLAfhrhEJ4IEwZXBi3yGuFdxMMEBRiseQ/CFoEQIewUU0xRt5xG2WOHm9epCzzqg2VWym/zzTc34U9+cCsDhEusZwZrhAaDL6CNUZ9ocJdeeqkJUl92xLBs6pMxH3RpV2hLaLBo9q6ZOpQ37YvBnwkDZcczZUUbYlmX+rzgggusPtIyBMqJSRLLsAhRNHxWQ6g3ypIVGOeJJ56wOiTtaFuki7SfcMIJpp3GtPM3PhOOdj/PPPPY0jHtGo2QiQ/pin69TnyiWSbkl74E/h7yQ9sB3NknZYWBMnj88cfNHkHraXSYIFLn9GPyB6yKEP9kk01m/cbbOBMRn8iRX8+Xt1MhehMd11ihWeNnwGYZjCXKJ5980gYcOhBaFh0LgYvWwf4NgxsDMDN/Bhk6NAM9y1/AnitLrGiLCCf23zhxyNIUHRcNBmHFkh/Lo67ZpBSlt1kemE0TP/twLDmyN4RgYPkLAYvWc+CBB9ohLQSkD5TYsVTGnhp7ZuQbYcHSsO/1zTXXXDZJYH+OyQB5YFChbIgLiI8yJI0IEwQIkxTCMMjzLjQalh1ZUsQf5UTZItwpEzQtBmI0C5YkXeshbt7FYMbeKvWA9sf+MeXfiGblVQRl8MADD9g7WOZbf/31TVMkP76KgdACNCK0Nk42U4Ysc+MHv2j4DgIYjZRwUcMH0keZ0f7QegnvWhf5R8gy8LMqwnI6cbgAI5xDePzOMcccJvzRWll6psx4NysZ1AOTOdo0UMdMuqhLJmHkASFF2kkn4NcFOe2a+KgjlutZeaFsaGtAelwA0SbwC2OPPba9ww/9FdHdeiJ9TAY87ccdd5y1d5ap2fslr0xguQiE8wy0b+qUsolCnveikeNnpZVWMn88M0H1swUsqdOXORjIBNrTyiFB3s/E2AWyEL2Jjl9pyADiNy+lr8Kd/VEGHwZpZq88IzxZRiUcnYhlOjQONAO0Jp8xo70iINhzAd7FkjACE22HMAwuCCY0PPwiiOmMCD3citLEQIX26Xs42DFjZuDzm5dS8PPQQw/ZQRuEPgLKlwuZraN1suSNwGI5m8kC/hB0CD00EWBZ8q677rK8kkb+Akug5BetiGXhWD4MwOzlIQg49IKQRltAg/PlZgZe3kX5UL4Mvgx+DODsBVKmvA/hxIDFb5Y8iYflYdKOhkqZ4saKgS/XRSgHygktvNHNS43Kj/pBaFP+vG/uuec2N/zfeeeddviISZUve5JO9oRpMwsttJAJFS8H6pg8U26EI754xR1tFg2SNDLgU2+4o93TDhn0qR8EK4KNCQ4ClLKnnaGRkWY0fpZkMew9807cqBPaPJoc8aORIhBpq2j85JWyxI2ypNxjGugXLDNTV2iAtF/e7e0aP/QFwqMVUq7YUc4Ie+Kh33CoijKjLcZyb1ZPHj6tJ9yZiFHulB+G9sTkkf5BO+c3+QHSTZ3QDik7Jk9MGOOSMHGi1VOPlAF5oj4BIY5/oNzoO0yISTdtmXqmjNJ8UUas1ujmJdEI2kknGapXGqb++O0zTjppq2eHcDFs+rsoTCO7tID53VPBmlL0TvA4U4rsW+UldUeosqzJ4O40Skd34i5KW6Ny6IlghaIyKUoj4TFFeQKPv1V63R17f25UVimt0gBMptAs/YQ7ExSWcOkLKY3KvdGz065ffsfy4Lm7grVRfj1sCkvVCEY0dw5zsXqE9hrjLQrn7kVu7eRLglW0oqhtlclQEaxoo2hWfaGRk2a0OPZ9omBFk2SJsJFg7Q2QTtKIhoAmMyzSSRoYsDlAxtKrl187gnV4g3yTZ7Rm8vyHP/zBVklSYTAsaFZPjQRrdyE+tnfQ2plc+IG4TtY/75RgFa3odP/r+FIwS5YsqSFYfR+oN8NsGMHKgBNn8i5YWYryfbDeCOknzcNqQEEzY8Bm+TUO2Gj8lCuCtTeXX9lQH37ohvZPX+kNNKsnVmwQrENaT8THe/hL/OS/0+2S9yFYe/skWAxbaJOdpOOClT0vTrH2pQZOuvlsgH050s1vZvLsvfWFycGwhvJiIsW+pJcfAzjl11sEixh+64l8cCLbJ8ZCpNBGOknHBSuHFhBGnc5ImVAkaBocpgDSzmEUTF/Kx7CiUflxEAp70TsYXts5+UJzJV8lDG9iOKTT7buje6zQ1ztopC/nZVgQy09l13sZXuuphKFNDKf0ecEqhBBC9CY6LVhLWZeTYBVCCCG6KEWwaplPCCGE6EIaqxBCCFEi0liFEEKIEtG3D0IIIUSJaClYCCGEKBFprEIIIUSJSLAKIYQQJaLDS0IIIUSJaI9VCCGEKBEtBQshhBAlIsEqhBBClIgEqxBCCFEiOrwkhBBClIg0ViGEEKJEShGsOhUshBBCdCGNVQghhCgRCVYhhBCiRHR4SQghhCgR7bEKIYQQJaKlYCGEEKJEJFiFEEKIEtEeqxBCCFEi0liFEEKIEpFgFUIIIUqkFMGqU8FCCCFEF9JYhRBCiBLR4SUhhBCiRKSxCiGEECWiPVYhhBCiRKSxCiGEECUiwSqEEEKUiA4vCSGEECUijVUIIYQoER1eEkIIIUpEGqsQQghRIhKsQgghRIno8JIQQghRItpjFUIIIUpES8FCCCFEiUiwCiGEECWiPVYhhBCiRKSxCiGEECUiwSqEEEKUSCmCVaeChRBCiC6ksQohhBAlIsEqhBBClEgpglWngoUQQogutMcqhBBClIiWgoUQQogSkWAVQgghSkR7rEIIIUSJSGMVQgghSkSHl4QQQogSkcYqhBBClIgEqxBCCFEiEqxCCCFEiZQiWHUqWAghhOhCh5eEEEKIEpHGKoQQQpSINFYhhBCiRKSxCiGEECVSimAVQgghRBdaChZCCCFKRBqrEEIIUSISrEIIIUSJSLAKIYQQJVKKYNWpYCGEEKILHV4SQgghSkQaqxBCCFEi2mMVQgghSkSCVQghhCgRCVYhhBCiRHR4SQghhCgRaaxCCCFEiUiwCiGEECVSimDV5zZCCCFEF9pjFUIIIUojy/4fqn00pDBZTFQAAAAASUVORK5CYII=;" vertex="1" parent="1">
          <mxGeometry x="-636" y="-735" width="613.53" height="220.61" as="geometry" />
        </mxCell>
        <mxCell id="zxsfmSbJYRVgXf5iT4Ii-10" value="Movies&lt;br&gt;(all movies, add/edit movie page, find movie filter, edit movie page, delete movie)" style="rounded=0;whiteSpace=wrap;html=1;" vertex="1" parent="1">
          <mxGeometry x="-783" y="-535" width="205" height="54" as="geometry" />
        </mxCell>
        <mxCell id="zxsfmSbJYRVgXf5iT4Ii-11" value="Subscriptions &lt;br&gt;(all members, add member page, editmember page, delete member)" style="rounded=0;whiteSpace=wrap;html=1;" vertex="1" parent="1">
          <mxGeometry x="-541" y="-539" width="205" height="54" as="geometry" />
        </mxCell>
        <mxCell id="zxsfmSbJYRVgXf5iT4Ii-12" value="usersManagment (&lt;b&gt;admin&lt;/b&gt;)&lt;br&gt;(all users, add user page, edit user page, delete user)" style="rounded=0;whiteSpace=wrap;html=1;" vertex="1" parent="1">
          <mxGeometry x="-318" y="-539" width="205" height="54" as="geometry" />
        </mxCell>
      </root>
    </mxGraphModel>
  </diagram>
</mxfile>
